<?xml version="1.0" encoding="UTF-8" standalone="no"?>
<!-- Generator: Adobe Illustrator 13.0.2, SVG Export Plug-In . SVG Version: 6.00 Build 14948)  -->

<svg
   xmlns:dc="http://purl.org/dc/elements/1.1/"
   xmlns:cc="http://creativecommons.org/ns#"
   xmlns:rdf="http://www.w3.org/1999/02/22-rdf-syntax-ns#"
   xmlns:svg="http://www.w3.org/2000/svg"
   xmlns="http://www.w3.org/2000/svg"
   xmlns:sodipodi="http://sodipodi.sourceforge.net/DTD/sodipodi-0.dtd"
   xmlns:inkscape="http://www.inkscape.org/namespaces/inkscape"
   id="Layer_1"
   enable-background="new 0 0 221.861 272.861"
   xml:space="preserve"
   viewBox="0 0 221.861 272.861"
   version="1.0"
   y="0px"
   x="0px"
   inkscape:version="0.48.4 r9939"
   width="100%"
   height="100%"
   sodipodi:docname="1315354149.svg"><defs
     id="defs47" /><sodipodi:namedview
     pagecolor="#ffffff"
     bordercolor="#666666"
     borderopacity="1"
     objecttolerance="10"
     gridtolerance="10"
     guidetolerance="10"
     inkscape:pageopacity="0"
     inkscape:pageshadow="2"
     inkscape:window-width="1366"
     inkscape:window-height="713"
     id="namedview45"
     showgrid="false"
     inkscape:zoom="1.9533755"
     inkscape:cx="110.9305"
     inkscape:cy="136.4305"
     inkscape:window-x="-2"
     inkscape:window-y="-3"
     inkscape:window-maximized="1"
     inkscape:current-layer="Layer_1" /><g
     id="g3028"
     transform="matrix(1,0,0,0.80820046,0,52.345279)"
     inkscape:export-xdpi="9.7352114"
     inkscape:export-ydpi="9.7352114"><g
       id="g3"><path
         id="path5"
         d="m 219.96,242.61 c 0,15.655 -11.505,28.347 -25.697,28.347 H 51.653 c -14.192,0 -25.697,-12.691 -25.697,-28.347 V 54.3 c 0,-15.655 11.505,-28.347 25.697,-28.347 h 142.61 c 14.192,0 25.697,12.691 25.697,28.347 v 188.31 z"
         inkscape:connector-curvature="0"
         style="fill:#ffffff;stroke:#000000;stroke-width:3.80850005" /><path
         id="path7"
         d="m 218.56,54.411 c 0,-15.43 -11.34,-27.938 -25.328,-27.938 H 52.682 c -13.987,0 -25.327,12.509 -25.327,27.938 v 42.654 h 191.21 V 54.411 z"
         inkscape:connector-curvature="0"
         style="fill:#c2272d;stroke:#000000;stroke-width:0.23459999" /><path
         d="M 72.894,48.564 V 52.6 c -1.641,0 -2.609,0.077 -2.905,0.228 -0.295,0.151 -0.443,0.58 -0.443,1.289 v 0.827 h 3.348 v 4.135 H 71.003 V 80.443 H 63.048 V 59.079 h -1.634 v -4.135 h 1.634 c 0,-1.72 0.059,-2.868 0.177,-3.446 0.118,-0.577 0.41,-1.092 0.876,-1.544 0.466,-0.453 1.119,-0.799 1.959,-1.035 0.84,-0.236 2.146,-0.354 3.918,-0.354 h 2.916 z M 92.428,67.842 H 82.129 v 5.65 c 0,1.182 0.086,1.943 0.257,2.284 0.17,0.342 0.498,0.512 0.984,0.512 0.604,0 1.007,-0.225 1.211,-0.678 0.203,-0.453 0.305,-1.33 0.305,-2.63 v -3.445 h 7.542 v 1.93 c 0,1.614 -0.102,2.854 -0.306,3.721 -0.203,0.867 -0.679,1.792 -1.428,2.776 -0.748,0.984 -1.696,1.725 -2.845,2.217 -1.149,0.492 -2.59,0.737 -4.322,0.737 -1.68,0 -3.163,-0.243 -4.45,-0.729 -1.286,-0.486 -2.287,-1.151 -3.003,-1.998 -0.715,-0.847 -1.211,-1.778 -1.486,-2.796 -0.275,-1.018 -0.413,-2.498 -0.413,-4.441 v -7.62 c 0,-2.284 0.309,-4.085 0.925,-5.403 0.617,-1.319 1.628,-2.33 3.032,-3.033 1.405,-0.702 3.02,-1.054 4.845,-1.054 2.231,0 4.072,0.424 5.522,1.271 1.451,0.847 2.468,1.97 3.052,3.367 0.585,1.398 0.877,3.363 0.877,5.896 v 3.466 z m -7.975,-4.254 v -1.91 c 0,-1.352 -0.072,-2.225 -0.217,-2.618 -0.145,-0.393 -0.439,-0.591 -0.886,-0.591 -0.552,0 -0.893,0.168 -1.024,0.503 -0.131,0.335 -0.197,1.236 -0.197,2.706 v 1.91 h 2.324 z M 103,48.564 v 7.541 c 0.656,-0.761 1.389,-1.328 2.195,-1.702 0.808,-0.374 1.684,-0.562 2.629,-0.562 1.09,0 2.035,0.17 2.836,0.512 0.801,0.341 1.411,0.82 1.831,1.438 0.42,0.618 0.673,1.221 0.758,1.812 0.086,0.591 0.128,1.851 0.128,3.78 v 11.775 c 0,1.916 -0.128,3.345 -0.384,4.283 -0.256,0.938 -0.856,1.753 -1.802,2.441 -0.945,0.689 -2.067,1.033 -3.367,1.033 -0.932,0 -1.802,-0.204 -2.608,-0.61 -0.808,-0.407 -1.546,-1.018 -2.216,-1.831 l -0.512,1.969 H 95.045 V 48.564 h 7.943 z m 2.42,13.173 c 0,-1.353 -0.085,-2.233 -0.256,-2.647 -0.171,-0.413 -0.505,-0.621 -1.004,-0.621 -0.485,0 -0.801,0.182 -0.945,0.543 -0.145,0.36 -0.217,1.269 -0.217,2.726 V 73 c 0,1.405 0.082,2.304 0.246,2.698 0.164,0.394 0.489,0.59 0.975,0.59 0.499,0 0.824,-0.203 0.975,-0.61 0.151,-0.406 0.227,-1.385 0.227,-2.934 V 61.737 z m 18.53,-7.423 -0.315,3.426 c 1.155,-2.455 2.829,-3.755 5.021,-3.898 v 9.195 c -1.457,0 -2.527,0.196 -3.21,0.591 -0.683,0.394 -1.103,0.942 -1.26,1.645 -0.158,0.703 -0.236,2.319 -0.236,4.853 v 10.318 h -7.955 v -26.13 h 7.95 z m 24.67,0 v 26.129 h -8.093 l 0.138,-2.166 c -0.551,0.88 -1.23,1.54 -2.038,1.979 -0.807,0.44 -1.735,0.659 -2.786,0.659 -1.194,0 -2.186,-0.21 -2.973,-0.63 -0.788,-0.421 -1.369,-0.979 -1.743,-1.674 -0.374,-0.696 -0.607,-1.42 -0.699,-2.175 -0.092,-0.755 -0.138,-2.256 -0.138,-4.501 V 54.314 h 7.955 v 17.78 c 0,2.034 0.063,3.242 0.188,3.623 0.124,0.381 0.462,0.57 1.014,0.57 0.591,0 0.941,-0.196 1.054,-0.59 0.111,-0.395 0.167,-1.661 0.167,-3.801 V 54.314 h 7.96 z m 10.01,10.121 h -7.463 v -1.752 c 0,-2.021 0.233,-3.579 0.699,-4.676 0.466,-1.096 1.401,-2.065 2.806,-2.905 1.405,-0.84 3.229,-1.26 5.474,-1.26 2.691,0 4.72,0.477 6.085,1.429 1.365,0.951 2.186,2.119 2.461,3.505 0.275,1.385 0.413,4.235 0.413,8.554 v 13.114 h -7.738 V 78.12 c -0.485,0.932 -1.112,1.632 -1.88,2.098 -0.768,0.466 -1.684,0.698 -2.747,0.698 -1.392,0 -2.668,-0.39 -3.83,-1.171 -1.161,-0.781 -1.742,-2.492 -1.742,-5.13 v -2.146 c 0,-1.956 0.309,-3.288 0.926,-3.997 0.616,-0.709 2.146,-1.536 4.588,-2.481 2.612,-1.023 4.01,-1.713 4.193,-2.067 0.185,-0.354 0.276,-1.076 0.276,-2.166 0,-1.365 -0.103,-2.253 -0.306,-2.667 -0.203,-0.413 -0.541,-0.621 -1.014,-0.621 -0.538,0 -0.873,0.175 -1.005,0.522 -0.131,0.349 -0.196,1.25 -0.196,2.707 v 2.736 z m 2.52,3.584 c -1.273,0.932 -2.012,1.713 -2.216,2.343 -0.203,0.631 -0.305,1.536 -0.305,2.718 0,1.352 0.089,2.225 0.266,2.619 0.177,0.394 0.528,0.59 1.054,0.59 0.499,0 0.823,-0.152 0.975,-0.461 0.15,-0.309 0.227,-1.12 0.227,-2.434 v -5.375 z m 18.64,-13.705 -0.315,3.426 c 1.155,-2.455 2.829,-3.755 5.021,-3.898 v 9.195 c -1.457,0 -2.527,0.196 -3.21,0.591 -0.683,0.394 -1.103,0.942 -1.26,1.645 -0.157,0.703 -0.236,2.319 -0.236,4.853 v 10.318 h -7.955 v -26.13 h 7.95 z"
         id="path16161_4_"
         inkscape:connector-curvature="0"
         style="fill:#ffffff" /><path
         d="m 106.92,127.05 v 112.4 H 78.869 v -60.265 c 0,-8.702 -0.209,-13.932 -0.625,-15.69 -0.417,-1.759 -1.563,-3.09 -3.437,-3.992 -1.875,-0.902 -6.051,-1.354 -12.531,-1.354 H 59.5 v -13.12 c 13.561,-2.916 23.86,-8.91 30.895,-17.981 h 16.525 z m 68.11,0 v 73.456 h 7.983 v 19.162 h -7.983 v 19.787 h -28.05 v -19.787 h -33.326 v -19.162 l 24.231,-73.456 h 37.15 z M 146.98,200.5 V 152.663 L 134.623,200.5 h 12.36 z"
         id="path16159_4_"
         inkscape:connector-curvature="0"
         style="fill:#999999" /></g><g
       id="g11"><path
         id="path13"
         d="m 213.94,236.6 c 0,15.655 -11.505,28.347 -25.697,28.347 h -142.6 c -14.192,0 -25.697,-12.691 -25.697,-28.347 V 48.29 c 0,-15.655 11.505,-28.347 25.697,-28.347 h 142.6 c 14.192,0 25.697,12.691 25.697,28.347 V 236.6 z"
         inkscape:connector-curvature="0"
         style="fill:#ffffff;stroke:#000000;stroke-width:3.80850005" /><path
         id="path15"
         d="m 212.55,48.397 c 0,-15.43 -11.34,-27.938 -25.328,-27.938 H 46.672 c -13.987,0 -25.327,12.509 -25.327,27.938 v 42.654 h 191.2 V 48.397 z"
         inkscape:connector-curvature="0"
         style="fill:#c2272d;stroke:#000000;stroke-width:0.23459999" /><path
         d="m 66.881,42.551 v 4.036 c -1.641,0 -2.609,0.077 -2.905,0.228 -0.295,0.151 -0.443,0.58 -0.443,1.289 v 0.827 h 3.348 v 4.135 H 64.99 V 74.43 H 57.035 V 53.065 H 55.401 V 48.93 h 1.634 c 0,-1.72 0.059,-2.868 0.177,-3.446 0.118,-0.577 0.41,-1.092 0.876,-1.544 0.466,-0.453 1.119,-0.799 1.959,-1.035 0.84,-0.236 2.146,-0.354 3.918,-0.354 h 2.916 z M 86.414,61.828 H 76.115 v 5.65 c 0,1.182 0.086,1.943 0.257,2.284 0.17,0.342 0.498,0.512 0.984,0.512 0.604,0 1.007,-0.225 1.211,-0.678 0.203,-0.453 0.305,-1.33 0.305,-2.63 v -3.445 h 7.542 v 1.93 c 0,1.614 -0.102,2.854 -0.306,3.721 -0.203,0.867 -0.679,1.792 -1.428,2.776 -0.748,0.984 -1.696,1.725 -2.845,2.217 -1.149,0.492 -2.59,0.737 -4.322,0.737 -1.68,0 -3.163,-0.243 -4.45,-0.729 -1.286,-0.486 -2.287,-1.151 -3.003,-1.998 -0.715,-0.847 -1.211,-1.778 -1.486,-2.796 -0.275,-1.018 -0.413,-2.498 -0.413,-4.441 v -7.62 c 0,-2.284 0.309,-4.085 0.925,-5.403 0.617,-1.319 1.628,-2.33 3.032,-3.033 1.405,-0.702 3.019,-1.054 4.844,-1.054 2.231,0 4.072,0.424 5.522,1.271 1.451,0.847 2.468,1.97 3.052,3.367 0.585,1.398 0.877,3.363 0.877,5.896 v 3.466 z m -7.975,-4.254 v -1.91 c 0,-1.352 -0.072,-2.225 -0.217,-2.618 -0.145,-0.393 -0.439,-0.591 -0.886,-0.591 -0.552,0 -0.893,0.168 -1.024,0.503 -0.131,0.335 -0.197,1.236 -0.197,2.706 v 1.91 h 2.324 z M 96.987,42.551 v 7.541 c 0.656,-0.761 1.389,-1.328 2.195,-1.702 0.808,-0.374 1.684,-0.562 2.629,-0.562 1.09,0 2.035,0.17 2.836,0.512 0.801,0.341 1.411,0.82 1.831,1.438 0.42,0.618 0.673,1.221 0.758,1.812 0.086,0.591 0.128,1.851 0.128,3.78 v 11.775 c 0,1.916 -0.128,3.345 -0.384,4.283 -0.256,0.938 -0.856,1.753 -1.802,2.441 -0.945,0.689 -2.067,1.033 -3.367,1.033 -0.932,0 -1.802,-0.204 -2.608,-0.61 -0.808,-0.407 -1.546,-1.018 -2.216,-1.831 L 96.475,74.43 H 89.032 V 42.551 h 7.946 z m 2.422,13.173 c 0,-1.353 -0.085,-2.233 -0.256,-2.647 -0.171,-0.413 -0.505,-0.621 -1.004,-0.621 -0.485,0 -0.801,0.182 -0.945,0.543 -0.145,0.36 -0.217,1.269 -0.217,2.726 v 11.263 c 0,1.405 0.082,2.304 0.246,2.698 0.164,0.394 0.489,0.59 0.975,0.59 0.499,0 0.824,-0.203 0.975,-0.61 0.151,-0.406 0.227,-1.385 0.227,-2.934 V 55.724 z m 18.531,-7.423 -0.315,3.426 c 1.155,-2.455 2.829,-3.755 5.021,-3.898 v 9.195 c -1.457,0 -2.527,0.196 -3.21,0.591 -0.683,0.394 -1.103,0.942 -1.26,1.645 -0.158,0.703 -0.236,2.319 -0.236,4.853 V 74.43 h -7.955 V 48.301 h 7.96 z m 24.67,0 V 74.43 h -8.093 l 0.138,-2.166 c -0.551,0.88 -1.23,1.54 -2.038,1.979 -0.807,0.44 -1.735,0.659 -2.786,0.659 -1.194,0 -2.186,-0.21 -2.973,-0.63 -0.788,-0.421 -1.369,-0.979 -1.743,-1.674 -0.374,-0.696 -0.607,-1.42 -0.699,-2.175 -0.092,-0.755 -0.138,-2.256 -0.138,-4.501 V 48.301 h 7.955 v 17.78 c 0,2.034 0.063,3.242 0.188,3.623 0.124,0.381 0.462,0.57 1.014,0.57 0.591,0 0.941,-0.196 1.054,-0.59 0.111,-0.395 0.167,-1.661 0.167,-3.801 V 48.301 h 7.95 z m 10,10.12 h -7.463 v -1.752 c 0,-2.021 0.233,-3.579 0.699,-4.676 0.466,-1.096 1.401,-2.065 2.806,-2.905 1.405,-0.84 3.229,-1.26 5.474,-1.26 2.691,0 4.72,0.477 6.085,1.429 1.365,0.951 2.186,2.119 2.461,3.505 0.275,1.385 0.413,4.235 0.413,8.554 V 74.43 h -7.738 v -2.323 c -0.485,0.932 -1.112,1.632 -1.88,2.098 -0.768,0.466 -1.684,0.698 -2.747,0.698 -1.392,0 -2.668,-0.39 -3.83,-1.171 -1.161,-0.781 -1.742,-2.492 -1.742,-5.13 v -2.146 c 0,-1.956 0.309,-3.288 0.926,-3.997 0.616,-0.709 2.146,-1.536 4.588,-2.481 2.612,-1.023 4.01,-1.713 4.193,-2.067 0.185,-0.354 0.276,-1.076 0.276,-2.166 0,-1.365 -0.103,-2.253 -0.306,-2.667 -0.203,-0.413 -0.541,-0.621 -1.014,-0.621 -0.538,0 -0.873,0.175 -1.005,0.522 -0.131,0.349 -0.196,1.25 -0.196,2.707 v 2.735 z m 2.52,3.584 c -1.273,0.932 -2.012,1.713 -2.216,2.343 -0.203,0.631 -0.305,1.536 -0.305,2.718 0,1.352 0.089,2.225 0.266,2.619 0.177,0.394 0.528,0.59 1.054,0.59 0.499,0 0.823,-0.152 0.975,-0.461 0.15,-0.309 0.227,-1.12 0.227,-2.434 v -5.375 z m 18.65,-13.704 -0.315,3.426 c 1.155,-2.455 2.829,-3.755 5.021,-3.898 v 9.195 c -1.457,0 -2.527,0.196 -3.21,0.591 -0.683,0.394 -1.103,0.942 -1.26,1.645 -0.157,0.703 -0.236,2.319 -0.236,4.853 V 74.43 h -7.955 V 48.301 h 7.96 z"
         id="path16161_1_"
         inkscape:connector-curvature="0"
         style="fill:#ffffff" /><path
         d="m 100.9,121.04 v 112.4 H 72.856 v -60.265 c 0,-8.702 -0.209,-13.932 -0.625,-15.69 -0.417,-1.759 -1.563,-3.09 -3.437,-3.992 -1.875,-0.902 -6.051,-1.354 -12.531,-1.354 h -2.777 v -13.123 c 13.561,-2.916 23.859,-8.91 30.895,-17.981 H 100.9 z m 68.12,0 v 73.456 h 7.983 v 19.162 h -7.983 v 19.787 h -28.05 v -19.787 h -33.326 v -19.162 l 24.231,-73.456 h 37.15 z m -28.06,73.45 v -47.837 l -12.357,47.837 h 12.36 z"
         id="path16159_1_"
         inkscape:connector-curvature="0"
         style="fill:#999999" /></g><g
       id="g19"><path
         id="path21"
         d="m 207.93,230.58 c 0,15.655 -11.505,28.347 -25.697,28.347 h -142.6 c -14.192,0 -25.697,-12.691 -25.697,-28.347 V 42.28 c 0,-15.655 11.505,-28.347 25.697,-28.347 h 142.6 c 14.192,0 25.697,12.691 25.697,28.347 v 188.3 z"
         inkscape:connector-curvature="0"
         style="fill:#ffffff;stroke:#000000;stroke-width:3.80850005" /><path
         id="path23"
         d="m 206.53,42.384 c 0,-15.43 -11.34,-27.938 -25.328,-27.938 H 40.662 c -13.987,0 -25.327,12.509 -25.327,27.938 v 42.654 h 191.2 V 42.384 z"
         inkscape:connector-curvature="0"
         style="fill:#c2272d;stroke:#000000;stroke-width:0.23459999" /><path
         d="m 60.868,36.537 v 4.036 c -1.641,0 -2.609,0.077 -2.905,0.228 -0.295,0.151 -0.443,0.58 -0.443,1.289 v 0.827 h 3.348 v 4.135 H 58.977 V 68.416 H 51.022 V 47.052 h -1.634 v -4.135 h 1.634 c 0,-1.72 0.059,-2.868 0.177,-3.446 0.118,-0.577 0.41,-1.092 0.876,-1.544 0.466,-0.453 1.119,-0.799 1.959,-1.035 0.84,-0.236 2.146,-0.354 3.918,-0.354 h 2.916 z M 80.4,55.814 H 70.102 v 5.65 c 0,1.182 0.086,1.943 0.257,2.284 0.17,0.342 0.498,0.512 0.984,0.512 0.604,0 1.007,-0.225 1.211,-0.678 0.203,-0.453 0.305,-1.33 0.305,-2.63 V 57.507 H 80.4 v 1.93 c 0,1.614 -0.102,2.854 -0.306,3.721 -0.203,0.867 -0.679,1.792 -1.428,2.776 -0.748,0.984 -1.696,1.725 -2.845,2.217 -1.149,0.492 -2.589,0.737 -4.322,0.737 -1.68,0 -3.163,-0.243 -4.45,-0.729 -1.286,-0.486 -2.287,-1.151 -3.003,-1.998 -0.715,-0.847 -1.211,-1.778 -1.486,-2.796 -0.275,-1.018 -0.413,-2.498 -0.413,-4.441 v -7.62 c 0,-2.284 0.309,-4.085 0.925,-5.403 0.617,-1.319 1.628,-2.33 3.032,-3.033 1.405,-0.702 3.019,-1.054 4.844,-1.054 2.231,0 4.072,0.424 5.522,1.271 1.451,0.847 2.468,1.97 3.052,3.367 0.585,1.398 0.877,3.363 0.877,5.896 v 3.466 z m -7.974,-4.253 v -1.91 c 0,-1.352 -0.072,-2.225 -0.217,-2.618 -0.145,-0.393 -0.439,-0.591 -0.886,-0.591 -0.552,0 -0.893,0.168 -1.024,0.503 -0.131,0.335 -0.197,1.236 -0.197,2.706 v 1.91 h 2.324 z M 90.974,36.537 v 7.541 c 0.656,-0.761 1.389,-1.328 2.195,-1.702 0.808,-0.374 1.684,-0.562 2.629,-0.562 1.09,0 2.035,0.17 2.836,0.512 0.801,0.341 1.411,0.82 1.831,1.438 0.42,0.618 0.673,1.221 0.758,1.812 0.086,0.591 0.128,1.851 0.128,3.78 v 11.775 c 0,1.916 -0.128,3.345 -0.384,4.283 -0.256,0.938 -0.856,1.753 -1.802,2.441 -0.945,0.689 -2.067,1.033 -3.367,1.033 -0.932,0 -1.802,-0.204 -2.608,-0.61 -0.808,-0.407 -1.546,-1.018 -2.216,-1.831 l -0.512,1.969 H 83.019 V 36.537 h 7.952 z m 2.422,13.173 c 0,-1.353 -0.085,-2.233 -0.256,-2.647 -0.171,-0.413 -0.505,-0.621 -1.004,-0.621 -0.485,0 -0.801,0.182 -0.945,0.543 -0.145,0.36 -0.217,1.269 -0.217,2.726 v 11.263 c 0,1.405 0.082,2.304 0.246,2.698 0.164,0.394 0.489,0.59 0.975,0.59 0.499,0 0.824,-0.203 0.975,-0.61 0.151,-0.406 0.227,-1.385 0.227,-2.934 V 49.71 z m 18.524,-7.423 -0.315,3.426 c 1.155,-2.455 2.829,-3.755 5.021,-3.898 v 9.195 c -1.457,0 -2.527,0.196 -3.21,0.591 -0.683,0.394 -1.103,0.942 -1.26,1.645 -0.158,0.703 -0.236,2.319 -0.236,4.853 v 10.318 h -7.955 v -26.13 h 7.96 z m 24.68,0 v 26.129 h -8.093 l 0.138,-2.166 c -0.551,0.88 -1.23,1.54 -2.038,1.979 -0.807,0.44 -1.735,0.659 -2.786,0.659 -1.194,0 -2.186,-0.21 -2.973,-0.63 -0.788,-0.421 -1.369,-0.979 -1.743,-1.674 -0.374,-0.696 -0.607,-1.42 -0.699,-2.175 -0.092,-0.755 -0.138,-2.256 -0.138,-4.501 V 42.287 h 7.955 v 17.78 c 0,2.034 0.063,3.242 0.188,3.623 0.124,0.381 0.462,0.57 1.014,0.57 0.591,0 0.941,-0.196 1.054,-0.59 0.111,-0.395 0.167,-1.661 0.167,-3.801 V 42.287 h 7.96 z m 10,10.12 h -7.463 v -1.752 c 0,-2.021 0.233,-3.579 0.699,-4.676 0.466,-1.096 1.401,-2.065 2.806,-2.905 1.405,-0.84 3.229,-1.26 5.474,-1.26 2.691,0 4.72,0.477 6.085,1.429 1.365,0.951 2.186,2.119 2.461,3.505 0.275,1.385 0.413,4.235 0.413,8.554 v 13.114 h -7.738 v -2.323 c -0.485,0.932 -1.112,1.632 -1.88,2.098 -0.768,0.466 -1.684,0.698 -2.747,0.698 -1.392,0 -2.668,-0.39 -3.83,-1.171 -1.161,-0.781 -1.742,-2.492 -1.742,-5.13 v -2.146 c 0,-1.956 0.309,-3.288 0.926,-3.997 0.616,-0.709 2.146,-1.536 4.588,-2.481 2.612,-1.023 4.01,-1.713 4.193,-2.067 0.185,-0.354 0.276,-1.076 0.276,-2.166 0,-1.365 -0.103,-2.253 -0.306,-2.667 -0.203,-0.413 -0.541,-0.621 -1.014,-0.621 -0.538,0 -0.873,0.175 -1.005,0.522 -0.131,0.349 -0.196,1.25 -0.196,2.707 v 2.735 z m 2.52,3.584 c -1.273,0.932 -2.012,1.713 -2.216,2.343 -0.203,0.631 -0.305,1.536 -0.305,2.718 0,1.352 0.089,2.225 0.266,2.619 0.177,0.394 0.528,0.59 1.054,0.59 0.499,0 0.823,-0.152 0.975,-0.461 0.15,-0.309 0.227,-1.12 0.227,-2.434 v -5.375 z m 18.65,-13.704 -0.315,3.426 c 1.155,-2.455 2.829,-3.755 5.021,-3.898 v 9.195 c -1.457,0 -2.527,0.196 -3.21,0.591 -0.683,0.394 -1.103,0.942 -1.26,1.645 -0.157,0.703 -0.236,2.319 -0.236,4.853 v 10.318 h -7.955 v -26.13 h 7.95 z"
         id="path16161_2_"
         inkscape:connector-curvature="0"
         style="fill:#ffffff" /><path
         d="m 94.891,115.02 v 112.4 H 66.843 v -60.265 c 0,-8.702 -0.209,-13.932 -0.625,-15.69 -0.417,-1.759 -1.563,-3.09 -3.437,-3.992 -1.875,-0.902 -6.051,-1.354 -12.531,-1.354 h -2.777 v -13.123 c 13.561,-2.916 23.859,-8.91 30.894,-17.981 h 16.524 z m 68.109,0 v 73.456 h 7.983 v 19.162 H 163 v 19.787 h -28.05 v -19.79 h -33.326 v -19.162 l 24.231,-73.456 h 37.15 z m -28.05,73.46 v -47.837 l -12.357,47.837 h 12.36 z"
         id="path16159_2_"
         inkscape:connector-curvature="0"
         style="fill:#999999" /></g><g
       id="g27"><path
         id="path29"
         d="m 201.92,224.57 c 0,15.655 -11.505,28.347 -25.697,28.347 H 33.623 C 19.431,252.917 7.926,240.226 7.926,224.57 V 36.26 C 7.926,20.605 19.431,7.913 33.623,7.913 h 142.6 c 14.192,0 25.697,12.691 25.697,28.347 v 188.31 z"
         inkscape:connector-curvature="0"
         style="fill:#ffffff;stroke:#000000;stroke-width:3.80850005" /><path
         id="path31"
         d="M 200.52,36.37 C 200.52,20.94 189.18,8.432 175.192,8.432 H 34.642 C 20.657,8.432 9.317,20.94 9.317,36.37 v 42.654 h 191.2 V 36.37 z"
         inkscape:connector-curvature="0"
         style="fill:#c2272d;stroke:#000000;stroke-width:0.23459999" /><path
         d="m 54.854,30.523 v 4.036 c -1.641,0 -2.609,0.077 -2.905,0.228 -0.295,0.151 -0.443,0.58 -0.443,1.289 v 0.827 h 3.348 v 4.135 H 52.963 V 62.402 H 45.008 V 41.038 h -1.634 v -4.135 h 1.634 c 0,-1.72 0.059,-2.868 0.177,-3.446 0.118,-0.577 0.41,-1.092 0.876,-1.544 0.466,-0.453 1.119,-0.799 1.959,-1.035 0.84,-0.236 2.146,-0.354 3.918,-0.354 h 2.916 z M 74.387,49.801 H 64.089 v 5.65 c 0,1.182 0.086,1.943 0.257,2.284 0.17,0.342 0.498,0.512 0.984,0.512 0.604,0 1.007,-0.225 1.211,-0.678 0.203,-0.453 0.305,-1.33 0.305,-2.63 v -3.445 h 7.541 v 1.93 c 0,1.614 -0.102,2.854 -0.306,3.721 -0.203,0.867 -0.679,1.792 -1.427,2.776 -0.748,0.984 -1.696,1.725 -2.845,2.217 -1.149,0.492 -2.589,0.737 -4.322,0.737 -1.68,0 -3.163,-0.243 -4.45,-0.729 C 59.751,61.66 58.75,60.995 58.034,60.148 57.319,59.301 56.823,58.37 56.548,57.352 56.273,56.334 56.135,54.854 56.135,52.911 v -7.62 c 0,-2.284 0.309,-4.085 0.925,-5.403 0.617,-1.319 1.628,-2.33 3.032,-3.033 1.405,-0.702 3.019,-1.054 4.844,-1.054 2.231,0 4.072,0.424 5.522,1.271 1.451,0.847 2.468,1.97 3.051,3.367 0.585,1.398 0.877,3.363 0.877,5.896 v 3.466 z m -7.974,-4.254 v -1.91 c 0,-1.352 -0.072,-2.225 -0.217,-2.618 -0.145,-0.393 -0.439,-0.591 -0.886,-0.591 -0.552,0 -0.893,0.168 -1.024,0.503 -0.131,0.335 -0.197,1.236 -0.197,2.706 v 1.91 h 2.324 z M 84.96,30.523 v 7.541 c 0.656,-0.761 1.389,-1.328 2.195,-1.702 0.808,-0.374 1.684,-0.562 2.629,-0.562 1.09,0 2.035,0.17 2.836,0.512 0.801,0.341 1.411,0.82 1.831,1.438 0.42,0.618 0.673,1.221 0.758,1.812 0.086,0.591 0.128,1.851 0.128,3.78 v 11.775 c 0,1.916 -0.128,3.345 -0.384,4.283 -0.256,0.938 -0.856,1.753 -1.802,2.441 -0.945,0.689 -2.067,1.033 -3.367,1.033 -0.932,0 -1.802,-0.204 -2.608,-0.61 -0.808,-0.407 -1.546,-1.018 -2.216,-1.831 l -0.512,1.969 H 77.005 V 30.523 h 7.955 z m 2.422,13.173 c 0,-1.353 -0.085,-2.233 -0.256,-2.647 -0.171,-0.413 -0.505,-0.621 -1.004,-0.621 -0.485,0 -0.801,0.182 -0.945,0.543 -0.145,0.36 -0.217,1.269 -0.217,2.726 V 54.96 c 0,1.405 0.082,2.304 0.246,2.698 0.164,0.394 0.489,0.59 0.975,0.59 0.499,0 0.824,-0.203 0.975,-0.61 0.151,-0.406 0.227,-1.385 0.227,-2.934 V 43.696 z m 18.528,-7.423 -0.315,3.426 c 1.155,-2.455 2.829,-3.755 5.021,-3.898 v 9.195 c -1.457,0 -2.527,0.196 -3.21,0.591 -0.683,0.394 -1.103,0.942 -1.26,1.645 -0.158,0.703 -0.236,2.319 -0.236,4.853 v 10.318 h -7.955 v -26.13 h 7.955 z m 24.67,0 v 26.129 h -8.093 l 0.138,-2.166 c -0.551,0.88 -1.23,1.54 -2.038,1.979 -0.807,0.44 -1.735,0.659 -2.786,0.659 -1.194,0 -2.186,-0.21 -2.973,-0.63 -0.788,-0.421 -1.369,-0.979 -1.743,-1.674 -0.374,-0.696 -0.607,-1.42 -0.699,-2.175 -0.092,-0.755 -0.138,-2.256 -0.138,-4.501 V 36.273 h 7.955 v 17.78 c 0,2.034 0.063,3.242 0.188,3.623 0.124,0.381 0.462,0.57 1.014,0.57 0.591,0 0.941,-0.196 1.054,-0.59 0.111,-0.395 0.167,-1.661 0.167,-3.801 V 36.273 h 7.96 z m 10.01,10.121 h -7.463 v -1.752 c 0,-2.021 0.233,-3.579 0.699,-4.676 0.466,-1.096 1.401,-2.065 2.806,-2.905 1.405,-0.84 3.229,-1.26 5.474,-1.26 2.691,0 4.72,0.477 6.085,1.429 1.365,0.951 2.186,2.119 2.461,3.505 0.275,1.385 0.413,4.235 0.413,8.554 v 13.114 h -7.738 V 60.08 c -0.485,0.932 -1.112,1.632 -1.88,2.098 -0.768,0.466 -1.684,0.698 -2.747,0.698 -1.392,0 -2.668,-0.39 -3.83,-1.171 -1.161,-0.781 -1.742,-2.492 -1.742,-5.13 v -2.146 c 0,-1.956 0.309,-3.288 0.926,-3.997 0.616,-0.709 2.146,-1.536 4.588,-2.481 2.612,-1.023 4.01,-1.713 4.193,-2.067 0.185,-0.354 0.276,-1.076 0.276,-2.166 0,-1.365 -0.103,-2.253 -0.306,-2.667 -0.203,-0.413 -0.541,-0.621 -1.014,-0.621 -0.538,0 -0.873,0.175 -1.005,0.522 -0.131,0.349 -0.196,1.25 -0.196,2.707 v 2.735 z m 2.52,3.584 c -1.273,0.932 -2.012,1.713 -2.216,2.343 -0.203,0.631 -0.305,1.536 -0.305,2.718 0,1.352 0.089,2.225 0.266,2.619 0.177,0.394 0.528,0.59 1.054,0.59 0.499,0 0.823,-0.152 0.975,-0.461 0.15,-0.309 0.227,-1.12 0.227,-2.434 v -5.375 z m 18.64,-13.705 -0.315,3.426 c 1.155,-2.455 2.829,-3.755 5.021,-3.898 v 9.195 c -1.457,0 -2.527,0.196 -3.21,0.591 -0.683,0.394 -1.103,0.942 -1.26,1.645 -0.157,0.703 -0.236,2.319 -0.236,4.853 v 10.318 h -7.955 v -26.13 h 7.95 z"
         id="path16161_3_"
         inkscape:connector-curvature="0"
         style="fill:#ffffff" /><path
         d="m 88.877,109.01 v 112.4 H 60.83 v -60.265 c 0,-8.702 -0.209,-13.932 -0.625,-15.69 -0.417,-1.759 -1.563,-3.09 -3.437,-3.992 -1.875,-0.902 -6.051,-1.354 -12.531,-1.354 H 41.46 v -13.123 c 13.561,-2.916 23.859,-8.91 30.894,-17.981 h 16.523 z m 68.113,0 v 73.456 h 7.983 v 19.162 h -7.983 v 19.787 H 128.94 V 201.628 H 95.611 v -19.162 l 24.231,-73.456 h 37.15 z m -28.05,73.45 v -47.837 l -12.357,47.837 h 12.36 z"
         id="path16159_3_"
         inkscape:connector-curvature="0"
         style="fill:#999999" /></g><g
       id="g35"><path
         id="path37"
         d="m 195.9,218.56 c 0,15.655 -11.505,28.347 -25.697,28.347 H 27.603 C 13.411,246.907 1.906,234.216 1.906,218.56 V 30.25 C 1.906,14.595 13.411,1.903 27.603,1.903 h 142.6 c 14.192,0 25.697,12.691 25.697,28.347 v 188.31 z"
         inkscape:connector-curvature="0"
         style="fill:#ffffff;stroke:#000000;stroke-width:3.80850005" /><path
         id="path39"
         d="M 194.5,30.356 C 194.5,14.926 183.16,2.418 169.172,2.418 H 28.632 C 14.645,2.418 3.305,14.927 3.305,30.356 V 73.01 h 191.2 V 30.356 z"
         inkscape:connector-curvature="0"
         style="fill:#c2272d;stroke:#000000;stroke-width:0.23459999" /><path
         d="m 48.841,24.51 v 4.036 c -1.641,0 -2.609,0.077 -2.905,0.228 -0.295,0.151 -0.443,0.58 -0.443,1.289 v 0.827 h 3.348 v 4.135 H 46.95 V 56.389 H 38.995 V 35.024 H 37.361 V 30.89 h 1.634 c 0,-1.72 0.059,-2.868 0.177,-3.446 0.118,-0.577 0.41,-1.092 0.876,-1.544 0.466,-0.453 1.119,-0.799 1.959,-1.035 0.84,-0.236 2.146,-0.354 3.918,-0.354 h 2.916 z M 68.374,43.787 H 58.076 v 5.65 c 0,1.182 0.086,1.943 0.257,2.284 0.17,0.342 0.498,0.512 0.984,0.512 0.604,0 1.007,-0.225 1.211,-0.678 0.203,-0.453 0.305,-1.33 0.305,-2.63 V 45.48 h 7.541 v 1.93 c 0,1.614 -0.102,2.854 -0.306,3.721 -0.203,0.867 -0.679,1.792 -1.427,2.776 -0.748,0.984 -1.696,1.725 -2.845,2.217 -1.149,0.492 -2.589,0.737 -4.322,0.737 -1.68,0 -3.163,-0.243 -4.45,-0.729 C 53.738,55.646 52.737,54.981 52.021,54.134 51.306,53.287 50.81,52.356 50.535,51.338 50.26,50.32 50.122,48.84 50.122,46.897 v -7.62 c 0,-2.284 0.309,-4.085 0.925,-5.403 0.617,-1.319 1.628,-2.33 3.032,-3.033 1.405,-0.702 3.019,-1.054 4.844,-1.054 2.231,0 4.072,0.424 5.522,1.271 1.451,0.847 2.468,1.97 3.051,3.367 0.585,1.398 0.877,3.363 0.877,5.896 v 3.466 z M 60.4,39.533 v -1.91 c 0,-1.352 -0.072,-2.225 -0.217,-2.618 -0.145,-0.393 -0.439,-0.591 -0.886,-0.591 -0.552,0 -0.893,0.168 -1.024,0.503 -0.131,0.335 -0.197,1.236 -0.197,2.706 v 1.91 H 60.4 z M 78.946,24.51 v 7.541 c 0.656,-0.761 1.389,-1.328 2.195,-1.702 0.808,-0.374 1.684,-0.562 2.629,-0.562 1.09,0 2.035,0.17 2.836,0.512 0.801,0.341 1.411,0.82 1.831,1.438 0.42,0.618 0.673,1.221 0.758,1.812 0.086,0.591 0.128,1.851 0.128,3.78 v 11.775 c 0,1.916 -0.128,3.345 -0.384,4.283 -0.256,0.938 -0.856,1.753 -1.802,2.441 -0.945,0.689 -2.067,1.033 -3.367,1.033 -0.932,0 -1.802,-0.204 -2.608,-0.61 -0.808,-0.407 -1.546,-1.018 -2.216,-1.831 l -0.512,1.969 H 70.991 V 24.51 h 7.955 z m 2.422,13.173 c 0,-1.353 -0.085,-2.233 -0.256,-2.647 -0.171,-0.413 -0.505,-0.621 -1.004,-0.621 -0.485,0 -0.801,0.182 -0.945,0.543 -0.145,0.36 -0.217,1.269 -0.217,2.726 v 11.263 c 0,1.405 0.082,2.304 0.246,2.698 0.164,0.394 0.489,0.59 0.975,0.59 0.499,0 0.824,-0.203 0.975,-0.61 0.151,-0.406 0.227,-1.385 0.227,-2.934 V 37.683 z m 18.529,-7.423 -0.315,3.426 c 1.155,-2.455 2.829,-3.755 5.021,-3.898 v 9.195 c -1.457,0 -2.527,0.196 -3.21,0.591 -0.683,0.394 -1.103,0.942 -1.26,1.645 -0.158,0.703 -0.236,2.319 -0.236,4.853 V 56.39 H 91.942 V 30.26 H 99.9 z m 24.673,0 v 26.129 h -8.093 l 0.138,-2.166 c -0.551,0.88 -1.23,1.54 -2.038,1.979 -0.807,0.44 -1.735,0.659 -2.786,0.659 -1.194,0 -2.186,-0.21 -2.973,-0.63 -0.788,-0.421 -1.369,-0.979 -1.743,-1.674 -0.374,-0.696 -0.607,-1.42 -0.699,-2.175 -0.092,-0.755 -0.138,-2.256 -0.138,-4.501 V 30.26 h 7.955 v 17.78 c 0,2.034 0.063,3.242 0.188,3.623 0.124,0.381 0.462,0.57 1.014,0.57 0.591,0 0.941,-0.196 1.054,-0.59 0.111,-0.395 0.167,-1.661 0.167,-3.801 V 30.26 h 7.95 z m 10,10.12 h -7.463 v -1.752 c 0,-2.021 0.233,-3.579 0.699,-4.676 0.466,-1.096 1.401,-2.065 2.806,-2.905 1.405,-0.84 3.229,-1.26 5.474,-1.26 2.691,0 4.72,0.477 6.085,1.429 1.365,0.951 2.186,2.119 2.461,3.505 0.275,1.385 0.413,4.235 0.413,8.554 v 13.114 h -7.738 v -2.323 c -0.485,0.932 -1.112,1.632 -1.88,2.098 -0.768,0.466 -1.684,0.698 -2.747,0.698 -1.392,0 -2.668,-0.39 -3.83,-1.171 -1.161,-0.781 -1.742,-2.492 -1.742,-5.13 v -2.146 c 0,-1.956 0.309,-3.288 0.926,-3.997 0.616,-0.709 2.146,-1.536 4.588,-2.481 2.612,-1.023 4.01,-1.713 4.193,-2.067 0.185,-0.354 0.276,-1.076 0.276,-2.166 0,-1.365 -0.103,-2.253 -0.306,-2.667 -0.203,-0.413 -0.541,-0.621 -1.014,-0.621 -0.538,0 -0.873,0.175 -1.005,0.522 -0.131,0.349 -0.196,1.25 -0.196,2.707 v 2.735 z m 2.52,3.584 c -1.273,0.932 -2.012,1.713 -2.216,2.343 -0.203,0.631 -0.305,1.536 -0.305,2.718 0,1.352 0.089,2.225 0.266,2.619 0.177,0.394 0.528,0.59 1.054,0.59 0.499,0 0.823,-0.152 0.975,-0.461 0.15,-0.309 0.227,-1.12 0.227,-2.434 v -5.375 z m 18.65,-13.704 -0.315,3.426 c 1.155,-2.455 2.829,-3.755 5.021,-3.898 v 9.195 c -1.457,0 -2.527,0.196 -3.21,0.591 -0.683,0.394 -1.103,0.942 -1.26,1.645 -0.157,0.703 -0.236,2.319 -0.236,4.853 V 56.39 h -7.955 V 30.26 h 7.96 z"
         id="path16161_5_"
         inkscape:connector-curvature="0"
         style="fill:#ffffff" /><path
         d="m 82.863,102.99 v 112.4 H 54.816 v -60.265 c 0,-8.702 -0.209,-13.932 -0.625,-15.69 -0.417,-1.759 -1.563,-3.09 -3.437,-3.992 -1.875,-0.902 -6.051,-1.354 -12.531,-1.354 h -2.777 v -13.123 c 13.561,-2.916 23.859,-8.91 30.894,-17.981 h 16.523 z m 68.107,0 v 73.456 h 7.983 v 19.162 h -7.983 v 19.787 H 122.92 V 195.608 H 89.598 v -19.16 l 24.231,-73.456 h 37.14 z m -28.05,73.46 v -47.837 l -12.357,47.837 h 12.36 z"
         id="path16159_5_"
         inkscape:connector-curvature="0"
         style="fill:#c2272d" /></g></g><metadata
     id="metadata43"><rdf:RDF><cc:Work><dc:format>image/svg+xml</dc:format><dc:type
           rdf:resource="http://purl.org/dc/dcmitype/StillImage" /><cc:license
           rdf:resource="http://creativecommons.org/licenses/publicdomain/" /><dc:publisher><cc:Agent
             rdf:about="http://openclipart.org/"><dc:title>Openclipart</dc:title></cc:Agent></dc:publisher><dc:title>Calendar</dc:title><dc:date>2011-09-07T00:09:09</dc:date><dc:description>Variation on Rilhard's version ;)</dc:description><dc:source>https://openclipart.org/detail/159397/calendar-by-silkfield</dc:source><dc:creator><cc:Agent><dc:title>silkfield</dc:title></cc:Agent></dc:creator><dc:subject><rdf:Bag><rdf:li>calendar</rdf:li></rdf:Bag></dc:subject></cc:Work><cc:License
         rdf:about="http://creativecommons.org/licenses/publicdomain/"><cc:permits
           rdf:resource="http://creativecommons.org/ns#Reproduction" /><cc:permits
           rdf:resource="http://creativecommons.org/ns#Distribution" /><cc:permits
           rdf:resource="http://creativecommons.org/ns#DerivativeWorks" /></cc:License></rdf:RDF></metadata></svg>